<svg width="134" height="30" fill="none" xmlns="http://www.w3.org/2000/svg"><path d="M45.276 15.078c.388.508.583 1.15.583 1.924 0 1.039-.389 1.835-1.144 2.388-.756.553-1.857.84-3.324.84h-5.547V8.288h5.223c1.338 0 2.353.266 3.087.819.733.552 1.079 1.304 1.079 2.255 0 .62-.151 1.172-.432 1.615a2.76 2.76 0 01-1.144 1.039c.69.2 1.23.553 1.619 1.062zm-7.77-5.419v3.804h3.41c.863 0 1.51-.155 1.964-.486.453-.332.69-.796.69-1.416 0-.619-.237-1.105-.69-1.415-.453-.332-1.122-.487-1.964-.487h-3.41zm5.957 8.691c.475-.31.712-.818.712-1.503 0-1.327-.95-1.99-2.849-1.99h-3.82v3.958h3.82c.95 0 1.662-.155 2.137-.465zM50.952 11.495c.54-.265 1.21-.398 1.986-.398v1.592c-.086-.022-.216-.022-.367-.022-.863 0-1.532.265-2.029.796-.496.531-.734 1.283-.734 2.256v4.49h-1.597v-9.024h1.533v1.526c.259-.53.669-.928 1.208-1.216zM60.881 12.004c.648.619.971 1.526.971 2.742v5.44h-1.51v-1.194c-.26.42-.648.73-1.145.973-.496.221-1.079.332-1.748.332-.993 0-1.77-.244-2.374-.73-.583-.487-.885-1.128-.885-1.924s.28-1.438.842-1.924c.56-.487 1.468-.73 2.698-.73h2.525v-.332c0-.707-.194-1.238-.604-1.614-.389-.376-.993-.553-1.77-.553-.518 0-1.036.089-1.533.265-.496.177-.928.42-1.273.708l-.67-1.216a4.765 4.765 0 011.62-.863 6.587 6.587 0 012.007-.287c1.273 0 2.202.31 2.849.907zm-1.576 6.634c.454-.287.972-.818.972-1.858v-.597h-2.46c-1.36 0-2.03.465-2.03 1.393 0 .465.173.819.518 1.084.346.265.82.398 1.425.398.604 0 1.122-.155 1.575-.42zM71.328 12.092c.669.663.992 1.637.992 2.92v5.196h-1.597v-5.02c0-.884-.194-1.526-.604-1.968-.41-.442-.993-.664-1.77-.664-.863 0-1.554.266-2.05.775-.497.508-.756 1.26-.756 2.211v4.644h-1.597v-9h1.532v1.37c.324-.464.756-.818 1.295-1.083.54-.243 1.166-.376 1.878-.376 1.123 0 2.008.332 2.677.995zM83.63 7.58v12.628h-1.532v-1.437a3.393 3.393 0 01-1.338 1.15 4.025 4.025 0 01-1.792.398c-.863 0-1.618-.2-2.288-.575a4.111 4.111 0 01-1.597-1.637c-.388-.707-.583-1.504-.583-2.41 0-.907.195-1.703.583-2.41.389-.686.907-1.24 1.597-1.615a4.634 4.634 0 012.288-.575c.626 0 1.209.133 1.749.376s.97.597 1.338 1.083V7.581h1.575zM80.61 18.484a2.774 2.774 0 001.057-1.128c.26-.486.389-1.04.389-1.658 0-.62-.13-1.172-.389-1.659-.259-.486-.604-.862-1.057-1.106a2.917 2.917 0 00-1.511-.398c-.561 0-1.08.133-1.511.398a2.86 2.86 0 00-1.058 1.106c-.259.487-.388 1.04-.388 1.659s.13 1.172.388 1.658c.26.487.605.863 1.058 1.128.453.265.95.398 1.51.398.562 0 1.058-.133 1.512-.398zM94.444 11.185l-4.252 9.93c-.367.929-.82 1.57-1.317 1.946-.496.376-1.1.553-1.813.553-.431 0-.841-.067-1.252-.221a2.637 2.637 0 01-1.014-.62l.69-1.216c.454.442.972.664 1.576.664.389 0 .713-.111.972-.31.258-.221.496-.575.712-1.084l.28-.619-3.885-9h1.662l3.065 7.209 3.022-7.232h1.554zM94.94 20.208h6.864v1.062H94.94v-1.062zM111.905 7.58v12.628h-1.532v-1.437a3.402 3.402 0 01-1.338 1.15 4.027 4.027 0 01-1.792.398c-.863 0-1.619-.2-2.288-.575a4.115 4.115 0 01-1.597-1.637c-.388-.707-.583-1.504-.583-2.41 0-.907.195-1.703.583-2.41.389-.686.907-1.24 1.597-1.615a4.634 4.634 0 012.288-.575c.626 0 1.209.133 1.748.376.54.243.972.597 1.339 1.083V7.581h1.575zm-3.021 10.903a2.775 2.775 0 001.057-1.128c.259-.486.389-1.04.389-1.658 0-.62-.13-1.172-.389-1.659-.259-.486-.604-.862-1.057-1.106a2.92 2.92 0 00-1.511-.398c-.562 0-1.08.133-1.511.398a2.863 2.863 0 00-1.058 1.106c-.259.487-.388 1.04-.388 1.659s.129 1.172.388 1.658c.259.487.605.863 1.058 1.128.453.265.949.398 1.511.398.539 0 1.057-.133 1.511-.398zM115.682 19.721a4.377 4.377 0 01-1.64-1.636c-.388-.708-.583-1.482-.583-2.366 0-.885.195-1.681.583-2.367.389-.707.95-1.238 1.64-1.636.691-.398 1.49-.597 2.353-.597.885 0 1.662.199 2.353.597.69.398 1.23.929 1.619 1.636.388.708.582 1.482.582 2.367 0 .884-.194 1.68-.582 2.366a4.172 4.172 0 01-1.619 1.636c-.691.399-1.468.598-2.353.598-.863-.022-1.64-.2-2.353-.598zm3.886-1.238a2.774 2.774 0 001.057-1.128c.259-.486.389-1.04.389-1.658 0-.62-.13-1.172-.389-1.659-.259-.486-.604-.862-1.057-1.106a2.92 2.92 0 00-1.511-.398c-.562 0-1.08.133-1.511.398a2.863 2.863 0 00-1.058 1.106c-.259.487-.388 1.04-.388 1.659s.129 1.172.388 1.658c.259.487.605.863 1.058 1.128.453.265.949.398 1.511.398a2.92 2.92 0 001.511-.398zM133.252 11.185v7.807c0 1.57-.389 2.742-1.144 3.494-.756.752-1.9 1.128-3.432 1.128a7.72 7.72 0 01-2.374-.354c-.756-.243-1.36-.575-1.835-.995l.756-1.26c.41.353.906.64 1.51.862.605.199 1.231.31 1.878.31 1.036 0 1.792-.244 2.288-.753.497-.508.734-1.26.734-2.277v-.708a3.4 3.4 0 01-1.381 1.04c-.54.243-1.144.353-1.792.353-.842 0-1.597-.177-2.288-.553a4.042 4.042 0 01-1.597-1.548c-.389-.663-.583-1.415-.583-2.278 0-.84.194-1.614.583-2.277a4.184 4.184 0 011.597-1.548 4.936 4.936 0 012.288-.553c.669 0 1.274.132 1.856.376a3.47 3.47 0 011.403 1.105v-1.393h1.533v.022zm-3.022 6.834c.453-.243.82-.597 1.079-1.04.259-.442.389-.95.389-1.526 0-.884-.281-1.57-.842-2.123-.561-.53-1.295-.818-2.18-.818-.907 0-1.619.265-2.202.818-.561.531-.841 1.239-.841 2.123 0 .575.129 1.084.388 1.526.259.443.626.797 1.079 1.04a3.33 3.33 0 001.576.376c.583 0 1.101-.11 1.554-.376zM27.167 2.229v25.52H2.237V2.23h24.93zM28.677.68H.728v28.616h27.93V.681h.02z" fill="#000"/><path d="M13.094 15.83c.389.508.583 1.15.583 1.923 0 1.04-.388 1.836-1.144 2.389-.755.553-1.856.84-3.324.84H4.525V9.04h4.36c1.339 0 2.353.265 3.087.818.734.553 1.08 1.305 1.08 2.256 0 .62-.152 1.172-.433 1.614-.28.465-.669.796-1.143 1.04.69.199 1.23.553 1.618 1.061zM6.187 10.41v3.804h2.547c.864 0 1.511-.155 1.964-.487.454-.331.691-.796.691-1.415 0-.62-.237-1.106-.69-1.415-.454-.332-1.123-.487-1.965-.487H6.187zm5.094 8.691c.475-.31.712-.818.712-1.504 0-1.326-.95-1.99-2.849-1.99H6.187v3.959h2.957c.95.022 1.64-.155 2.137-.465zM15.231 9.15h4.36c1.144 0 1.964.244 2.85.73a5.027 5.027 0 012.05 2.057c.496.885.733 1.902.733 3.052 0 1.15-.237 2.167-.733 3.052a5.36 5.36 0 01-2.05 2.078c-.886.487-1.706.73-2.85.73h-4.36V9.151zm4.274 10.262c.863 0 1.446-.177 2.115-.553a3.872 3.872 0 001.532-1.548c.367-.663.54-1.438.54-2.3 0-.862-.173-1.636-.54-2.3a3.871 3.871 0 00-1.532-1.548c-.67-.376-1.23-.553-2.115-.553h-2.72v8.802h2.72z" fill="#000"/></svg>